<svg width="320" height="320" viewBox="0 0 320 320" fill="none" xmlns="http://www.w3.org/2000/svg">
<g filter="url(#filter0_b_3_45)">
<g filter="url(#filter1_i_3_45)">
<path d="M199.101 139.474C199.358 138.014 199.493 136.511 199.493 134.978C199.493 120.631 187.754 109 173.273 109C162.508 109 153.258 115.428 149.22 124.621C145.948 121.823 141.703 120.133 137.065 120.133C126.721 120.133 118.336 128.533 118.336 138.895C118.336 139.472 118.362 140.043 118.413 140.606C113.438 143.021 110.013 148.087 110.013 153.945C110.013 162.144 116.721 168.79 124.995 168.79H195.747C204.022 168.79 210.73 162.144 210.73 153.945C210.73 146.889 205.761 140.983 199.101 139.474Z" fill="url(#paint0_linear_3_45)"/>
</g>
</g>
<g filter="url(#filter2_i_3_45)">
<path d="M169.28 168.821H153.234L146.258 187.58H158.815L153.002 211L174.164 180.275H164.862L169.28 168.821Z" fill="url(#paint1_linear_3_45)"/>
</g>
<g filter="url(#filter3_f_3_45)">
<rect x="118.994" y="158.075" width="82.434" height="16.0377" rx="8.01887" fill="#FFED8D"/>
</g>
<g filter="url(#filter4_di_3_45)">
<path d="M180.306 202.845C177.815 203.951 176.843 204.886 175.952 207.199C175.242 204.957 174.369 203.957 171.597 202.845C174.449 201.916 175.223 200.84 175.952 198.491C176.847 200.656 177.401 201.838 180.306 202.845Z" fill="url(#paint2_linear_3_45)"/>
</g>
<g filter="url(#filter5_i_3_45)">
<path d="M139.891 178.468C137.4 179.574 136.428 180.509 135.537 182.822C134.827 180.58 133.954 179.58 131.182 178.468C134.034 177.539 134.808 176.463 135.537 174.113C136.432 176.279 136.986 177.461 139.891 178.468Z" fill="url(#paint3_linear_3_45)"/>
</g>
<defs>
<filter id="filter0_b_3_45" x="83.0126" y="82" width="154.717" height="113.79" filterUnits="userSpaceOnUse" color-interpolation-filters="sRGB">
<feFlood flood-opacity="0" result="BackgroundImageFix"/>
<feGaussianBlur in="BackgroundImageFix" stdDeviation="13.5"/>
<feComposite in2="SourceAlpha" operator="in" result="effect1_backgroundBlur_3_45"/>
<feBlend mode="normal" in="SourceGraphic" in2="effect1_backgroundBlur_3_45" result="shape"/>
</filter>
<filter id="filter1_i_3_45" x="110.013" y="109" width="100.717" height="69.7896" filterUnits="userSpaceOnUse" color-interpolation-filters="sRGB">
<feFlood flood-opacity="0" result="BackgroundImageFix"/>
<feBlend mode="normal" in="SourceGraphic" in2="BackgroundImageFix" result="shape"/>
<feColorMatrix in="SourceAlpha" type="matrix" values="0 0 0 0 0 0 0 0 0 0 0 0 0 0 0 0 0 0 127 0" result="hardAlpha"/>
<feOffset dy="11"/>
<feGaussianBlur stdDeviation="5"/>
<feComposite in2="hardAlpha" operator="arithmetic" k2="-1" k3="1"/>
<feColorMatrix type="matrix" values="0 0 0 0 1 0 0 0 0 1 0 0 0 0 1 0 0 0 1 0"/>
<feBlend mode="normal" in2="shape" result="effect1_innerShadow_3_45"/>
</filter>
<filter id="filter2_i_3_45" x="144.258" y="168.821" width="29.9056" height="42.1793" filterUnits="userSpaceOnUse" color-interpolation-filters="sRGB">
<feFlood flood-opacity="0" result="BackgroundImageFix"/>
<feBlend mode="normal" in="SourceGraphic" in2="BackgroundImageFix" result="shape"/>
<feColorMatrix in="SourceAlpha" type="matrix" values="0 0 0 0 0 0 0 0 0 0 0 0 0 0 0 0 0 0 127 0" result="hardAlpha"/>
<feOffset dx="-2"/>
<feGaussianBlur stdDeviation="4.5"/>
<feComposite in2="hardAlpha" operator="arithmetic" k2="-1" k3="1"/>
<feColorMatrix type="matrix" values="0 0 0 0 1 0 0 0 0 1 0 0 0 0 1 0 0 0 0.5 0"/>
<feBlend mode="normal" in2="shape" result="effect1_innerShadow_3_45"/>
</filter>
<filter id="filter3_f_3_45" x="41.9937" y="81.0755" width="236.434" height="170.038" filterUnits="userSpaceOnUse" color-interpolation-filters="sRGB">
<feFlood flood-opacity="0" result="BackgroundImageFix"/>
<feBlend mode="normal" in="SourceGraphic" in2="BackgroundImageFix" result="shape"/>
<feGaussianBlur stdDeviation="38.5" result="effect1_foregroundBlur_3_45"/>
</filter>
<filter id="filter4_di_3_45" x="162.83" y="198.491" width="26.2436" height="28.4761" filterUnits="userSpaceOnUse" color-interpolation-filters="sRGB">
<feFlood flood-opacity="0" result="BackgroundImageFix"/>
<feColorMatrix in="SourceAlpha" type="matrix" values="0 0 0 0 0 0 0 0 0 0 0 0 0 0 0 0 0 0 127 0" result="hardAlpha"/>
<feOffset dy="11"/>
<feGaussianBlur stdDeviation="4.38372"/>
<feColorMatrix type="matrix" values="0 0 0 0 0.285052 0 0 0 0 0.179688 0 0 0 0 0.9375 0 0 0 1 0"/>
<feBlend mode="normal" in2="BackgroundImageFix" result="effect1_dropShadow_3_45"/>
<feBlend mode="normal" in="SourceGraphic" in2="effect1_dropShadow_3_45" result="shape"/>
<feColorMatrix in="SourceAlpha" type="matrix" values="0 0 0 0 0 0 0 0 0 0 0 0 0 0 0 0 0 0 127 0" result="hardAlpha"/>
<feOffset dy="4"/>
<feGaussianBlur stdDeviation="2"/>
<feComposite in2="hardAlpha" operator="arithmetic" k2="-1" k3="1"/>
<feColorMatrix type="matrix" values="0 0 0 0 1 0 0 0 0 1 0 0 0 0 1 0 0 0 0.44 0"/>
<feBlend mode="normal" in2="shape" result="effect2_innerShadow_3_45"/>
</filter>
<filter id="filter5_i_3_45" x="131.182" y="174.113" width="8.70868" height="12.7087" filterUnits="userSpaceOnUse" color-interpolation-filters="sRGB">
<feFlood flood-opacity="0" result="BackgroundImageFix"/>
<feBlend mode="normal" in="SourceGraphic" in2="BackgroundImageFix" result="shape"/>
<feColorMatrix in="SourceAlpha" type="matrix" values="0 0 0 0 0 0 0 0 0 0 0 0 0 0 0 0 0 0 127 0" result="hardAlpha"/>
<feOffset dy="4"/>
<feGaussianBlur stdDeviation="2"/>
<feComposite in2="hardAlpha" operator="arithmetic" k2="-1" k3="1"/>
<feColorMatrix type="matrix" values="0 0 0 0 1 0 0 0 0 1 0 0 0 0 1 0 0 0 0.44 0"/>
<feBlend mode="normal" in2="shape" result="effect1_innerShadow_3_45"/>
</filter>
<linearGradient id="paint0_linear_3_45" x1="116.419" y1="163.451" x2="218.025" y2="87.4686" gradientUnits="userSpaceOnUse">
<stop stop-color="white"/>
<stop offset="1" stop-color="white" stop-opacity="0.58"/>
</linearGradient>
<linearGradient id="paint1_linear_3_45" x1="156.762" y1="206.937" x2="183.984" y2="169.359" gradientUnits="userSpaceOnUse">
<stop stop-color="#FF9900"/>
<stop offset="1" stop-color="#FFEE94"/>
</linearGradient>
<linearGradient id="paint2_linear_3_45" x1="174.692" y1="207.607" x2="178.79" y2="199.912" gradientUnits="userSpaceOnUse">
<stop stop-color="#FF9900"/>
<stop offset="1" stop-color="#FFEE94"/>
</linearGradient>
<linearGradient id="paint3_linear_3_45" x1="134.277" y1="183.23" x2="138.375" y2="175.535" gradientUnits="userSpaceOnUse">
<stop stop-color="#FF9900"/>
<stop offset="1" stop-color="#FFEE94"/>
</linearGradient>
</defs>
</svg>
